<svg width="24" height="24" viewBox="0 0 24 24" fill="none" xmlns="http://www.w3.org/2000/svg">
<rect x="1" y="1" width="22" height="22" rx="3" fill="#E1E2E4"/>
<path d="M4.12493 13.3327C3.52308 14.1791 3.19971 15.1918 3.19971 16.2304V18.8C3.19971 19.9046 4.09514 20.8 5.19971 20.8H18.7997C19.9043 20.8 20.7997 19.9046 20.7997 18.8V18.588C20.7997 17.4527 20.4133 16.3511 19.7041 15.4646L19.1569 14.7806C18.2182 13.6073 16.3409 13.6073 15.4022 14.7806L14.4642 15.9532C14.2213 16.2568 13.7312 16.244 13.5067 15.9283L9.84551 10.7797C8.91665 9.4735 6.86928 9.4735 5.94042 10.7797L4.12493 13.3327Z" fill="#62636A"/>
<rect x="2" y="2" width="20" height="20" rx="2" stroke="#E1E2E4" stroke-width="2"/>
<rect x="15.3003" y="5.40015" width="3.3" height="3.3" rx="1.65" fill="#62636A"/>
</svg>
