<svg width="100" height="100" viewBox="0 0 100 100" fill="none" xmlns="http://www.w3.org/2000/svg">
<g clip-path="url(#clip0_1885_2387)">
<rect width="100" height="100" rx="4.7619" fill="#F7F7F8"/>
<path d="M94.0476 112.202C94.0476 130.119 74.3268 135.119 50 135.119C25.6732 135.119 5.95239 130.119 5.95239 112.202C5.95239 94.286 8.50524 70.2381 50 70.2381C92.7623 70.2381 94.0476 94.286 94.0476 112.202Z" fill="#E1E2E4"/>
<path d="M41.1692 76.1004C39.1282 75.2541 37.7976 73.262 37.7976 71.0524V71.0524C41.4358 70.5225 45.4876 69.0476 50 69.0476C54.3911 69.0476 58.3448 70.4917 61.9047 70.9661V70.9661C61.9047 73.2315 60.5511 75.2777 58.4662 76.1638L57.9434 76.3859C52.8626 78.5453 47.1268 78.5706 42.0271 76.4561L41.1692 76.1004Z" fill="white"/>
<path d="M42.2619 49.3569C42.2619 48.1163 43.3466 47.1549 44.5782 47.3038V47.3038C48.1796 47.7391 51.8204 47.7391 55.4218 47.3038V47.3038C56.6534 47.1549 57.7381 48.1164 57.7381 49.3569V72.2789H42.2619V49.3569Z" fill="white"/>
<path fill-rule="evenodd" clip-rule="evenodd" d="M57.7381 60.1728C56.3613 62.3751 54.0038 63.6905 50 63.6905C45.9962 63.6905 43.6387 62.375 42.2619 60.1728V49.9522C42.2619 48.7116 43.3466 47.7502 44.5782 47.8991C48.1796 48.3344 51.8204 48.3344 55.4218 47.8991C56.6534 47.7502 57.7381 48.7116 57.7381 49.9522V60.1728Z" fill="#E1E2E4"/>
<path d="M65.4762 41.6667C65.4762 52.8439 58.7962 61.9048 50 61.9048C41.799 61.9048 34.5238 52.8439 34.5238 41.6667C34.5238 30.4895 35.2514 22.0238 50 22.0238C64.7486 22.0238 65.4762 30.4895 65.4762 41.6667Z" fill="white"/>
<path d="M30.3571 41.9643C30.3571 43.7723 32.4181 45.8333 34.2262 45.8333C36.0343 45.8333 36.3095 43.7723 36.3095 41.9643C36.3095 40.1562 34.8438 38.0952 33.0357 38.0952C31.2276 38.0952 30.3571 40.1562 30.3571 41.9643Z" fill="white"/>
<path d="M69.6429 41.369C69.6429 43.1771 67.5819 45.2381 65.7738 45.2381C63.9657 45.2381 63.6905 43.1771 63.6905 41.369C63.6905 39.561 65.1562 37.5 66.9643 37.5C68.7724 37.5 69.6429 39.561 69.6429 41.369Z" fill="white"/>
<path d="M60.9856 19.245C67.249 22.8611 68.3726 33.5142 66.0714 37.5C63.0952 33.3333 57.7252 39.0806 51.4618 35.4644C45.1985 31.8483 41.3912 26.8762 44.8829 21.1047C47.1841 17.1189 54.7223 15.6288 60.9856 19.245Z" fill="#E1E2E4"/>
<path d="M34.3971 24.3962C38.1433 20.65 43.7096 20.7067 46.1336 23.1307C46.7719 23.769 46.3488 27.509 42.2619 32.4405C38.3864 37.1169 36.0119 34.5238 33.9286 38.0952C31.5045 35.6712 30.6509 28.1424 34.3971 24.3962Z" fill="#E1E2E4"/>
<path fill-rule="evenodd" clip-rule="evenodd" d="M33.9286 38.2648C34.3705 38.4348 34.7744 38.7231 35.119 39.0858V35.7143H33.9286V38.2648Z" fill="#E1E2E4"/>
<path fill-rule="evenodd" clip-rule="evenodd" d="M66.0714 37.6696C65.6295 37.8396 65.2256 38.1279 64.8809 38.4906V35.7143H66.0714V37.6696Z" fill="#E1E2E4"/>
</g>
<defs>
<clipPath id="clip0_1885_2387">
<rect width="100" height="100" rx="4.7619" fill="white"/>
</clipPath>
</defs>
</svg>
