<svg width="360" height="360" viewBox="0 0 360 360" fill="none" xmlns="http://www.w3.org/2000/svg">
<g clip-path="url(#clip0_4581_16182)">
<path d="M0 0H360V336C360 349.255 349.255 360 336 360H24C10.7452 360 0 349.255 0 336V0Z" fill="#F7F7F8"/>
<path d="M339 418.578C339 489.27 267.813 509 180 509C92.1867 509 21 489.27 21 418.578C21 347.886 30.2151 253 180 253C334.36 253 339 347.886 339 418.578Z" fill="#E1E2E4"/>
<path fill-rule="evenodd" clip-rule="evenodd" d="M160.403 170.055C155.934 169.517 152 173.008 152 177.511V252.994C151.446 253.117 150.894 253.241 150.344 253.363C145.375 254.475 140.596 255.544 136 256.203C136 264.035 140.739 271.088 147.988 274.043L151.499 275.475C169.777 282.927 190.26 282.838 208.473 275.226L210.772 274.265C218.178 271.17 223 263.927 223 255.897C218.326 255.284 213.464 254.216 208.407 253.105C208.271 253.075 208.136 253.046 208 253.016V177.511C208 173.008 204.066 169.517 199.597 170.055C186.579 171.623 173.421 171.623 160.403 170.055Z" fill="white"/>
<path fill-rule="evenodd" clip-rule="evenodd" d="M208 216.71C202.961 224.411 194.407 229 180 229C165.593 229 157.039 224.411 152 216.71V182.123C152 176.225 157.023 171.576 162.904 172.032C174.284 172.915 185.716 172.915 197.096 172.032C202.977 171.576 208 176.225 208 182.123V216.71Z" fill="#E1E2E4"/>
<path d="M237 149.925C237 190.283 212.397 223 180 223C149.795 223 123 190.283 123 149.925C123 109.567 125.68 79 180 79C234.32 79 237 109.567 237 149.925Z" fill="white"/>
<path fill-rule="evenodd" clip-rule="evenodd" d="M237.584 133.769C245.052 118.403 240.866 81.1442 219.156 68.3781C196.891 55.2861 170.001 60.846 161.736 75.4265C161.213 76.3067 160.736 77.1817 160.303 78.0512C150.255 73.8455 135.16 75.9329 124.275 87.0189C110.772 100.772 113.7 128.271 122.343 137.281V137.777C123.794 138.242 125.136 139.017 126.317 140V132.494C128.81 130.318 131.471 129.544 134.436 128.681C139.417 127.231 145.255 125.532 152.593 116.522C155.879 112.487 158.513 108.67 160.597 105.147C165.269 113.71 174.061 121.309 184.953 127.713C196.121 134.28 206.525 132.255 215.452 130.518C222.562 129.134 228.734 127.933 233.61 131.399V139.314C234.791 138.212 236.133 137.345 237.584 136.824V133.769Z" fill="#E1E2E4"/>
<path d="M109 151C109 157.542 116.617 165 123.3 165C129.983 165 131 157.542 131 151C131 144.458 125.583 137 118.9 137C112.217 137 109 144.458 109 151Z" fill="white"/>
<path d="M251 150C251 156.542 243.383 164 236.7 164C230.017 164 229 156.542 229 150C229 143.458 234.417 136 241.1 136C247.783 136 251 143.458 251 150Z" fill="white"/>
</g>
<defs>
<clipPath id="clip0_4581_16182">
<path d="M0 0H360V336C360 349.255 349.255 360 336 360H24C10.7452 360 0 349.255 0 336V0Z" fill="white"/>
</clipPath>
</defs>
</svg>
