<svg width="24" height="24" viewBox="0 0 24 24" fill="none" xmlns="http://www.w3.org/2000/svg">
<path d="M12 4.89443L10.7468 4.58915C8.76131 4.10548 6.70694 3.91776 4.65914 4.03286C4.00803 4.06946 3.5 4.57488 3.5 5.18604V15.0181C3.5 15.661 4.07801 16.1711 4.76292 16.1326C6.74196 16.0214 8.72736 16.2028 10.6462 16.6702L12 17M12 4.89443L13.2532 4.58915C15.2387 4.10548 17.2931 3.91776 19.3409 4.03286C19.992 4.06946 20.5 4.57488 20.5 5.18604V15.0181C20.5 15.661 19.922 16.1711 19.2371 16.1326C17.258 16.0214 15.2726 16.2028 13.3538 16.6702L12 17M12 4.89443V17" stroke="#313235" stroke-width="2" stroke-linejoin="round"/>
<path d="M4.5 19.0875C6.77751 18.7673 9.49047 19.3982 11.2339 19.8175C11.7384 19.9389 12.2616 19.9389 12.7661 19.8175C14.5095 19.3982 17.2225 18.7673 19.5 19.0875" stroke="#313235" stroke-width="2" stroke-linecap="round"/>
</svg>
