<svg width="151" height="60" viewBox="0 0 151 60" fill="none" xmlns="http://www.w3.org/2000/svg">
<path fill-rule="evenodd" clip-rule="evenodd" d="M149.607 12.6404C150.357 12.5804 150.607 11.6404 149.987 11.2104C147.847 9.7304 146.507 8.9804 145.667 8.4104C145.247 7.9904 146.067 7.5904 146.297 7.2004C146.787 6.6404 146.297 5.7904 145.567 5.9404C145.127 5.9404 144.327 6.4504 144.207 5.8804C144.137 4.8704 144.147 3.3304 143.937 0.730372C143.877 -0.0196279 142.937 -0.269627 142.507 0.350373C141.027 2.4904 140.267 3.8304 139.707 4.6704C139.607 4.8204 139.387 4.8404 139.257 4.7204C139.027 4.5104 138.777 4.2904 138.497 4.0404C137.927 3.5504 137.087 4.0404 137.237 4.7704C137.307 5.1404 137.377 5.4704 137.447 5.7704C137.487 5.9504 137.357 6.1204 137.177 6.1404C136.167 6.2104 134.627 6.2004 132.027 6.4104C131.277 6.4704 131.027 7.4104 131.647 7.8404C133.787 9.3204 135.127 10.0804 135.967 10.6404C136.117 10.7404 136.137 10.9604 136.017 11.0904C135.807 11.3204 135.587 11.5704 135.337 11.8504C134.847 12.4104 135.337 13.2604 136.067 13.1104C136.437 13.0404 136.767 12.9704 137.067 12.9004C137.247 12.8604 137.417 12.9904 137.437 13.1704C137.507 14.1804 137.497 15.7204 137.707 18.3104C137.767 19.0604 138.707 19.3104 139.137 18.6904C140.617 16.5504 141.367 15.2104 141.937 14.3704C142.357 13.9504 142.757 14.7704 143.147 15.0004C143.707 15.4904 144.547 15.0004 144.407 14.2704C144.407 13.8304 143.897 13.0304 144.467 12.9004C145.487 12.8304 147.017 12.8404 149.617 12.6304L149.607 12.6404Z" fill="#FF824D"/>
<path fill-rule="evenodd" clip-rule="evenodd" d="M115.917 47.9004V43.9604C115.917 35.2404 105.717 30.5304 98.467 34.1404C93.357 27.4604 93.947 17.1904 100.747 12.2704C107.677 6.51041 122.387 6.51041 129.317 12.2804C134.217 15.7104 137.677 25.0804 132.267 29.7404C127.137 34.5104 117.137 31.2704 117.167 23.9004V19.9604C117.167 19.0704 116.407 18.5004 115.647 18.5004C114.887 18.5004 114.127 19.0704 114.127 19.9604V23.9004C114.127 32.6204 124.327 37.3304 131.577 33.7204C136.687 40.4004 136.097 50.6604 129.307 55.5904C122.507 61.3404 107.537 61.3404 100.737 55.5904C95.877 52.1804 92.407 42.9804 97.637 38.2504C102.757 33.3104 112.877 36.4604 112.897 43.9504V47.8904C112.897 49.8004 115.917 49.8004 115.927 47.8904L115.917 47.9004Z" fill="#2260FF"/>
<path fill-rule="evenodd" clip-rule="evenodd" d="M20.9178 47.9006V43.9606C20.9178 35.2406 10.7178 30.5306 3.46779 34.1406C-1.64221 27.4606 -1.05221 17.2106 5.72779 12.2806C12.6578 6.51062 27.3778 6.51062 34.3078 12.2806C39.2078 15.7106 42.6778 25.0906 37.2478 29.7506C32.1178 34.5306 22.1078 31.2906 22.1378 23.9106V19.9706C22.1378 19.0806 21.3778 18.5106 20.6178 18.5106C19.8578 18.5106 19.0978 19.0806 19.0978 19.9706V23.9106C19.0978 32.6306 29.2978 37.3406 36.5478 33.7306C41.6578 40.4106 41.0678 50.6606 34.2778 55.6006C27.4778 61.3506 12.5078 61.3506 5.70779 55.6006C0.84779 52.1906 -2.62221 42.9906 2.60779 38.2606C7.71779 33.3206 17.8578 36.4706 17.8678 43.9606V47.9006C17.8778 49.8106 20.8878 49.8106 20.8978 47.9006H20.9178Z" fill="#2260FF"/>
<path fill-rule="evenodd" clip-rule="evenodd" d="M56.328 19.3002C56.308 19.7502 56.488 20.1802 56.818 20.4602C57.418 20.9502 58.188 20.9502 58.788 20.4602C59.388 19.9702 59.278 19.1502 59.278 18.4502C59.278 18.0702 59.278 17.6902 59.278 17.3602C60.288 6.79021 75.558 8.26021 74.738 18.7902V18.8102C74.738 18.8102 74.738 18.8402 74.738 18.8702C74.738 19.0502 74.718 19.4402 74.808 19.7802C74.908 20.3402 75.608 20.8902 76.208 20.8402C76.808 20.8902 77.518 20.3402 77.608 19.7802C77.708 19.4402 77.688 19.0502 77.678 18.8702V18.8502C77.868 15.8602 76.938 12.8302 74.958 10.6602C80.598 4.90021 90.988 8.80021 90.988 17.2102V50.6102C90.298 63.5302 71.848 62.6802 72.218 49.6502C75.478 47.8302 77.678 44.3702 77.688 40.3802C77.688 39.6102 77.668 37.6202 77.688 36.6802C77.688 36.6702 77.688 36.6702 77.688 36.6702V36.6302C77.718 34.6302 74.668 34.6602 74.738 36.6702C74.738 36.7402 74.738 36.8102 74.738 36.8802C74.738 37.1102 74.738 37.3302 74.738 37.5602C74.738 38.3402 74.738 39.1202 74.738 39.9002C74.738 40.0202 74.738 40.1402 74.738 40.2602C74.828 44.4602 71.328 48.0802 66.998 48.0602C62.688 48.0802 59.208 44.5102 59.248 40.3602C59.238 39.6302 59.268 37.4702 59.248 36.5702C59.218 34.6702 56.288 34.7002 56.298 36.6002C56.298 37.5702 56.298 39.9002 56.298 40.3802C56.298 44.3702 58.508 47.8302 61.768 49.6502C62.158 62.6802 43.688 63.5402 42.998 50.6102V17.2002C42.998 8.77021 53.398 4.89021 59.038 10.6502C57.258 12.6102 56.228 15.3002 56.318 18.1202C56.318 18.3302 56.318 17.9102 56.318 18.1202" fill="#2260FF"/>
</svg>
