<svg width="88" height="88" viewBox="0 0 88 88" fill="none" xmlns="http://www.w3.org/2000/svg">
<path fill-rule="evenodd" clip-rule="evenodd" d="M73.772 22.5773C74.2482 22.5388 74.4094 21.9373 74.0162 21.6658C72.6526 20.7244 71.7997 20.242 71.2619 19.8799C71.1647 19.8144 71.1514 19.6786 71.2303 19.5919C71.3615 19.4476 71.5051 19.2872 71.6618 19.1076C71.9759 18.7476 71.6664 18.2116 71.1976 18.3036C70.9632 18.3497 70.7521 18.3939 70.5611 18.4355C70.4467 18.4605 70.3357 18.3811 70.3276 18.2642C70.2825 17.6175 70.2915 16.6372 70.1578 14.9829C70.1193 14.5067 69.5178 14.3455 69.2463 14.7386C68.3036 16.1042 67.8212 16.9575 67.4589 17.4951C67.3934 17.5923 67.2576 17.6055 67.171 17.5267C67.0266 17.3954 66.8661 17.2517 66.6863 17.0948C66.3263 16.7807 65.7903 17.0902 65.8824 17.559C65.9282 17.7928 65.9724 18.0033 66.0139 18.1939C66.0388 18.3084 65.9594 18.4194 65.8425 18.4275C65.1957 18.4723 64.2158 18.4635 62.5634 18.5971C62.0872 18.6355 61.926 19.2371 62.3191 19.5085C63.6846 20.4512 64.5379 20.9336 65.0755 21.2959C65.1727 21.3614 65.1859 21.4972 65.1071 21.5838C64.9753 21.7287 64.8311 21.8898 64.6735 22.0703C64.3594 22.4303 64.6689 22.9663 65.1377 22.8743C65.3722 22.8282 65.5834 22.784 65.7744 22.7424C65.889 22.7174 66 22.7969 66.0081 22.9138C66.0528 23.5606 66.0441 24.5403 66.1776 26.1915C66.216 26.6677 66.8176 26.8289 67.089 26.4357C68.0304 25.0721 68.5128 24.2193 68.8749 23.6815C68.9404 23.5843 69.0762 23.571 69.1629 23.6499C69.3077 23.7816 69.4687 23.9257 69.649 24.0831C70.009 24.3972 70.545 24.0877 70.453 23.6189C70.4068 23.3837 70.3624 23.172 70.3207 22.9805C70.2958 22.8661 70.3752 22.7551 70.4921 22.7469C71.1388 22.702 72.1189 22.7109 73.772 22.5773Z" fill="#FF824D"/>
<path fill-rule="evenodd" clip-rule="evenodd" d="M43.9555 57.8033V53.9128C43.9873 49.4707 41.3104 46.0735 37.8411 44.3348C34.5965 42.7089 30.5527 42.4738 27.1562 44.2196C22.2402 37.6328 22.7997 27.5157 29.3229 22.6499L29.3344 22.6414L29.3456 22.6325C32.7606 19.9056 37.605 18.3333 43.0891 18.3333C48.5726 18.3333 53.4077 19.9053 56.8337 22.6332L56.8474 22.6442L56.8616 22.6546C59.2356 24.3924 61.2728 27.5726 62.0247 30.9272C62.7729 34.2652 62.2227 37.6048 59.6873 39.8839L59.6821 39.8885L59.677 39.8932C57.1006 42.2838 53.4522 42.6467 50.4156 41.4628C47.3865 40.2818 45.1231 37.6272 45.1409 34.1237V30.2299C45.1409 29.3558 44.4134 28.7896 43.6819 28.7896C42.9504 28.7896 42.2228 29.3558 42.2228 30.2299V34.1204C42.191 38.5625 44.8679 41.9598 48.3372 43.6984C51.5818 45.3244 55.6256 45.5595 59.0221 43.8136C63.9377 50.3995 63.3792 60.5078 56.8547 65.3838L56.8331 65.3999L56.8124 65.4175C53.5233 68.2106 48.3539 69.6667 43.0841 69.6667C37.8143 69.6667 32.6449 68.2106 29.3558 65.4175L29.3325 65.3977L29.3078 65.3795C26.9605 63.655 24.9355 60.5247 24.1645 57.2088C23.3972 53.9084 23.8991 50.5896 26.3463 48.2777L26.3524 48.2718C28.9178 45.8004 32.5944 45.3756 35.6655 46.5307C38.7279 47.6824 41.0374 50.3394 41.0374 53.9095L41.0374 57.8157C41.0436 58.2699 41.2421 58.6572 41.5563 58.9116C41.8486 59.1484 42.1983 59.2386 42.5075 59.2359C42.8166 59.2333 43.1618 59.1372 43.4483 58.9009C43.7558 58.6473 43.9555 58.2607 43.9555 57.8033Z" fill="#2260FF"/>
</svg>
