<svg width="24" height="24" viewBox="0 0 24 24" fill="none" xmlns="http://www.w3.org/2000/svg">
<path fill-rule="evenodd" clip-rule="evenodd" d="M16.5172 5.36721C16.7481 5.72256 17.1127 6 17.5365 6H19C20.6569 6 22 7.34315 22 9V17C22 18.6569 20.6569 20 19 20H5C3.34315 20 2 18.6569 2 17V9C2 7.34315 3.34315 6 5 6H6.46353C6.88735 6 7.25186 5.72256 7.48284 5.36721C8.01776 4.54425 8.94532 4 10 4H14C15.0547 4 15.9822 4.54425 16.5172 5.36721Z" fill="#E1E2E4"/>
<path d="M16 13C16 15.2091 14.2091 17 12 17C9.79086 17 8 15.2091 8 13C8 10.7909 9.79086 9 12 9C14.2091 9 16 10.7909 16 13Z" fill="#A5A6AC"/>
<path d="M14 13C14 14.1046 13.1046 15 12 15C10.8954 15 10 14.1046 10 13C10 11.8954 10.8954 11 12 11C13.1046 11 14 11.8954 14 13Z" fill="#E1E2E4"/>
<rect x="18" y="8" width="2" height="2" rx="1" fill="#A5A6AC"/>
</svg>
