<svg width="24" height="24" viewBox="0 0 24 24" fill="none" xmlns="http://www.w3.org/2000/svg">
<path fill-rule="evenodd" clip-rule="evenodd" d="M17.5174 3.36705C17.7483 3.72248 18.1129 4 18.5368 4H21C22.6569 4 24 5.34315 24 7V19C24 20.6569 22.6569 22 21 22H3C1.34315 22 0 20.6569 0 19V7C0 5.34315 1.34315 4 3 4H5.46323C5.88711 4 6.25166 3.72248 6.48262 3.36705C7.01751 2.5439 7.94518 1.99951 9 1.99951H15C16.0548 1.99951 16.9825 2.5439 17.5174 3.36705Z" fill="#E1E2E4"/>
<path d="M17 13C17 15.7614 14.7614 18 12 18C9.23858 18 7 15.7614 7 13C7 10.2386 9.23858 8 12 8C14.7614 8 17 10.2386 17 13Z" fill="#62636A"/>
<path d="M15 13C15 14.6569 13.6569 16 12 16C10.3431 16 9 14.6569 9 13C9 11.3431 10.3431 10 12 10C13.6569 10 15 11.3431 15 13Z" fill="#E1E2E4"/>
<rect x="19" y="6" width="3" height="3" rx="1.5" fill="#62636A"/>
</svg>
