<svg width="24" height="24" viewBox="0 0 24 24" fill="none" xmlns="http://www.w3.org/2000/svg">
<path d="M5 19V7.00024H19V19C19 20.6569 17.6569 22 16 22H8C6.34315 22 5 20.6569 5 19Z" fill="#E1E2E4"/>
<path fill-rule="evenodd" clip-rule="evenodd" d="M9.5 10C10.0523 10 10.5 10.4477 10.5 11V17C10.5 17.5523 10.0523 18 9.5 18C8.94772 18 8.5 17.5523 8.5 17V11C8.5 10.4477 8.94772 10 9.5 10ZM14.5 10C15.0523 10 15.5 10.4477 15.5 11V17C15.5 17.5523 15.0523 18 14.5 18C13.9477 18 13.5 17.5523 13.5 17V11C13.5 10.4477 13.9477 10 14.5 10Z" fill="#62636A"/>
<path d="M9.75 5H4C3.44772 5 3 5.44772 3 6C3 6.55228 3.44772 7 4 7H20C20.5523 7 21 6.55228 21 6C21 5.44772 20.5523 5 20 5H14.25H9.75Z" fill="#E1E2E4"/>
<path fill-rule="evenodd" clip-rule="evenodd" d="M13 4H11C10.4477 4 10 4.44772 10 5V6H14V5C14 4.44772 13.5523 4 13 4ZM11 2C9.34315 2 8 3.34315 8 5V6C8 7.10457 8.89543 8 10 8H14C15.1046 8 16 7.10457 16 6V5C16 3.34315 14.6569 2 13 2H11Z" fill="#E1E2E4"/>
</svg>
