<svg width="24" height="24" viewBox="0 0 24 24" fill="none" xmlns="http://www.w3.org/2000/svg">
<circle cx="14" cy="16.5" r="2" fill="#F7F7F8" stroke="#313235" stroke-width="2"/>
<path fill-rule="evenodd" clip-rule="evenodd" d="M15.7324 17.5C15.9026 17.2058 16 16.8643 16 16.5C16 16.1357 15.9026 15.7942 15.7324 15.5H19.5C20.0523 15.5 20.5 15.9477 20.5 16.5C20.5 17.0523 20.0523 17.5 19.5 17.5H15.7324ZM12.2676 17.5H4.5C3.94772 17.5 3.5 17.0523 3.5 16.5C3.5 15.9477 3.94772 15.5 4.5 15.5H12.2676C12.0974 15.7942 12 16.1357 12 16.5C12 16.8643 12.0974 17.2058 12.2676 17.5Z" fill="#313235"/>
<circle cx="10" cy="7.5" r="2" fill="#F7F7F8" stroke="#313235" stroke-width="2"/>
<path fill-rule="evenodd" clip-rule="evenodd" d="M11.7324 8.5C11.9026 8.20583 12 7.86429 12 7.5C12 7.13571 11.9026 6.79417 11.7324 6.5H19.5C20.0523 6.5 20.5 6.94772 20.5 7.5C20.5 8.05228 20.0523 8.5 19.5 8.5H11.7324ZM8.26756 8.5H4.5C3.94772 8.5 3.5 8.05228 3.5 7.5C3.5 6.94772 3.94772 6.5 4.5 6.5H8.26756C8.09739 6.79417 8 7.13571 8 7.5C8 7.86429 8.09739 8.20583 8.26756 8.5Z" fill="#313235"/>
</svg>
